<?xml version="1.0" standalone="no"?>
<!DOCTYPE svg PUBLIC "-//W3C//DTD SVG 20010904//EN"
 "http://www.w3.org/TR/2001/REC-SVG-20010904/DTD/svg10.dtd">
<svg version="1.0" xmlns="http://www.w3.org/2000/svg"
 width="512.000000pt" height="512.000000pt" viewBox="0 0 512 512"
 preserveAspectRatio="xMidYMid meet">
<metadata>
Created by potrace 1.16, written by Peter Selinger 2001-2019
</metadata>
<g transform="translate(0.000000,512.000000) scale(0.100000,-0.100000)"
fill="#A98160" stroke="none">
<path d="M2562 4593 l-35 -38 7 30 7 30 -23 -23 c-16 -16 -23 -34 -23 -66 l0
-44 -54 6 c-58 6 -66 -11 -12 -23 16 -3 35 -13 42 -21 10 -12 6 -14 -24 -14
-59 0 -206 -48 -319 -103 l-107 -53 -28 38 c-38 53 -131 122 -201 149 -82 33
-238 33 -339 1 -49 -15 -71 -27 -67 -35 3 -8 -16 -27 -45 -46 -71 -45 -135
-123 -181 -216 -45 -90 -64 -172 -38 -162 13 4 15 -2 11 -37 -6 -49 17 -147
48 -208 31 -61 125 -150 192 -182 34 -16 83 -29 122 -33 36 -3 65 -8 65 -10 0
-2 -9 -44 -20 -94 -19 -82 -46 -377 -36 -386 2 -3 14 1 27 7 20 11 21 10 14
-6 -27 -62 -55 -154 -55 -182 0 -28 3 -32 19 -27 15 4 22 -5 40 -52 46 -120
120 -203 260 -294 l68 -44 -73 -40 c-143 -78 -256 -167 -414 -325 -337 -337
-438 -574 -319 -753 136 -206 453 -151 625 108 l39 58 6 -89 c3 -49 9 -104 13
-122 7 -31 6 -33 -39 -52 -186 -80 -293 -274 -264 -477 12 -85 45 -157 95
-210 l39 -41 -57 -12 c-59 -13 -98 -33 -86 -45 26 -26 302 -49 497 -42 177 6
304 27 406 64 65 25 85 27 264 30 176 4 198 2 236 -16 126 -59 256 -76 580
-75 215 0 285 3 344 17 41 9 77 19 80 23 11 11 -30 32 -88 43 l-58 11 34 36
c174 185 80 499 -190 634 -44 22 -85 40 -91 40 -7 0 -27 15 -44 33 -30 31 -32
36 -22 63 21 55 40 166 40 237 l0 72 35 -79 c74 -170 156 -266 260 -305 171
-64 338 37 352 212 9 111 -65 326 -170 492 -117 186 -334 416 -502 530 -144
99 -138 83 -53 137 91 58 152 110 189 161 25 35 29 37 29 17 0 -23 0 -23 22
-4 43 39 119 169 141 241 14 50 25 72 34 69 18 -7 16 12 -7 63 -24 52 -24 52
-5 45 8 -4 15 -2 15 2 0 7 -52 262 -76 375 -6 25 -4 26 46 32 257 31 416 343
312 614 -20 52 -20 53 0 42 11 -6 22 -8 25 -5 10 10 -51 101 -101 149 -54 51
-192 127 -235 128 l-26 0 25 12 c41 19 -106 22 -161 3 -24 -8 -45 -13 -47 -11
-2 2 14 15 35 30 l38 27 -40 -7 c-121 -20 -293 -140 -346 -240 -13 -25 -26
-44 -29 -42 -50 30 -196 92 -258 109 -79 23 -80 24 -118 81 -47 74 -122 127
-178 127 -32 0 -45 -7 -74 -37z m53 -39 c-15 -21 -25 -50 -24 -68 l1 -31 8 33
c11 49 16 49 44 -5 25 -47 25 -47 26 -17 1 92 19 110 79 80 25 -13 81 -76 81
-90 0 -3 -18 -6 -40 -6 -36 0 -43 4 -67 42 -34 51 -42 32 -16 -38 l19 -49 56
-7 c155 -19 332 -96 507 -220 57 -40 116 -81 132 -92 24 -15 27 -21 18 -32
-10 -13 -6 -14 27 -9 27 4 51 0 79 -14 27 -13 34 -20 20 -20 -16 -1 -11 -9 25
-46 44 -45 44 -45 17 -45 -34 0 -34 -7 1 -43 l27 -29 -40 7 c-24 4 -46 16 -55
28 -8 12 -42 58 -75 102 -33 44 -58 84 -57 88 1 5 -2 6 -7 3 -5 -4 -12 -2 -16
4 -3 5 -16 15 -28 22 -19 9 -20 9 -11 -3 6 -8 40 -50 75 -94 112 -140 179
-297 238 -560 17 -77 36 -151 41 -165 10 -23 8 -22 -17 7 -35 39 -110 103 -98
83 5 -8 30 -40 55 -71 66 -79 92 -187 39 -158 -19 9 -19 9 -10 -10 16 -28 14
-71 -6 -132 l-18 -54 -7 60 c-8 58 -36 160 -44 153 -2 -2 3 -26 11 -53 16 -52
18 -155 4 -195 -7 -20 -8 -17 -6 18 1 23 0 42 -3 42 -4 0 -19 -27 -35 -60 -16
-33 -51 -84 -78 -113 -41 -44 -44 -46 -20 -12 28 39 27 38 -39 -17 -178 -150
-417 -261 -699 -324 -107 -24 -145 -28 -279 -28 -133 1 -172 5 -273 28 -231
53 -370 125 -429 221 -14 23 -18 25 -18 11 0 -16 -2 -17 -16 -5 -29 24 -71 93
-87 144 -13 38 -14 60 -7 90 15 61 13 62 -32 19 -76 -71 -85 -75 -55 -24 14
25 35 68 46 96 11 28 30 73 42 100 17 35 20 49 10 52 -9 3 -8 10 4 29 25 38
13 37 -27 -3 -20 -19 -39 -31 -42 -26 -7 12 10 173 28 258 21 100 73 259 107
326 16 32 29 60 29 63 0 3 -19 5 -42 5 -76 0 -75 11 3 84 70 67 69 76 -6 38
l-30 -15 20 23 c23 26 90 59 121 60 12 0 26 11 35 26 7 14 49 60 93 101 65 61
81 72 88 59 13 -24 29 -19 23 7 -5 18 4 28 52 59 77 49 156 83 250 108 85 22
193 26 226 9 21 -12 21 -12 4 15 -20 30 -10 33 36 11 l32 -16 -38 33 c-31 28
-37 39 -37 73 0 40 18 78 48 103 29 23 32 12 7 -24z m1174 -83 c83 -35 154
-79 146 -91 -3 -5 0 -7 8 -4 8 3 18 1 22 -5 4 -7 -4 -11 -20 -11 l-27 0 25
-30 c51 -60 94 -225 81 -312 -25 -176 -141 -316 -286 -343 -42 -8 -55 6 -89
94 l-19 51 28 0 c36 0 121 41 149 71 82 90 71 245 -24 330 -106 96 -265 72
-325 -49 l-24 -49 -70 56 c-38 31 -83 66 -99 78 l-30 21 21 38 c34 58 112 132
170 159 104 49 242 48 363 -4z m-2121 -31 c96 -16 166 -46 223 -97 41 -38 99
-111 99 -126 0 -2 -37 -37 -82 -77 -57 -53 -83 -70 -86 -60 -3 8 -24 33 -47
56 -123 120 -317 49 -349 -128 -20 -109 66 -220 186 -242 l37 -7 -26 -54 c-30
-61 -35 -63 -125 -44 -109 23 -197 90 -237 179 -11 25 -21 39 -21 32 0 -25 50
-112 85 -147 52 -51 127 -86 204 -94 l66 -7 -60 -7 c-95 -11 -171 20 -248 102
-61 65 -88 128 -94 217 -8 106 15 173 79 236 l52 50 -41 -21 c-23 -11 -44 -25
-48 -31 -3 -5 -15 -15 -26 -21 -20 -10 -20 -9 -4 20 32 63 134 159 207 196 62
31 80 35 152 36 l81 1 -40 13 c-22 8 -57 14 -78 14 -59 1 -34 21 26 21 29 0
80 -5 115 -10z m1729 -2031 c303 -227 541 -556 635 -874 20 -67 21 -81 10
-122 -27 -100 -90 -149 -192 -147 -36 1 -77 6 -93 12 l-27 12 32 44 c21 28 38
43 48 40 8 -3 -4 14 -27 38 -23 24 -58 70 -77 102 -20 33 -36 55 -36 50 0 -16
68 -126 96 -155 l25 -26 -39 -32 c-22 -17 -47 -31 -55 -31 -25 0 -96 82 -127
145 -33 70 -103 254 -103 273 0 6 -4 12 -9 12 -4 0 -8 5 -8 11 0 5 6 7 13 4 6
-4 4 0 -5 8 -10 8 -18 18 -18 22 0 4 8 4 18 0 13 -5 14 -3 5 6 -6 6 -9 18 -6
25 3 8 0 14 -7 14 -10 0 -10 3 0 15 10 12 9 16 -4 21 -9 3 -16 12 -16 19 0 7
-6 15 -13 18 -12 4 -37 74 -41 112 -1 6 -4 12 -7 15 -7 7 -52 132 -52 148 0 6
-5 12 -10 12 -6 0 -8 3 -5 6 4 3 15 1 27 -5 20 -11 20 -10 7 26 -8 21 -28 67
-45 103 -17 36 -31 74 -31 85 0 20 26 65 37 65 4 0 49 -32 100 -71z m-195
-109 c77 -173 114 -286 138 -420 39 -221 37 -443 -6 -550 -14 -34 -21 -40 -45
-40 -57 0 -131 -23 -180 -55 -27 -19 -47 -29 -43 -22 10 17 -3 3 -63 -68 -63
-75 -114 -156 -138 -217 -20 -54 -28 -58 -165 -79 -70 -11 -216 -7 -266 7 -19
5 -20 9 -11 43 12 44 5 80 -23 112 l-19 24 15 -41 c13 -34 14 -48 4 -85 l-12
-44 -18 57 c-9 31 -27 72 -39 92 -13 20 -20 36 -17 36 4 0 -23 31 -60 69 -103
109 -224 164 -356 163 -55 -1 -68 2 -72 16 -13 49 -16 139 -6 212 23 167 66
278 215 560 96 182 104 251 34 299 -19 13 -25 21 -14 18 122 -34 288 -57 410
-57 123 0 277 23 402 59 84 25 100 27 109 14 10 -11 13 -11 17 -1 4 10 8 9 18
-4 8 -9 25 -15 39 -14 14 1 31 -3 39 -8 11 -8 13 -8 8 1 -4 6 -3 14 3 18 5 3
10 0 10 -7 1 -7 7 -2 14 12 8 14 12 29 9 35 -4 7 -3 7 4 0 5 -5 35 -66 65
-135z m-1209 85 c34 -5 41 -12 58 -51 19 -42 19 -48 5 -97 -8 -29 -61 -128
-116 -222 -55 -93 -145 -258 -200 -366 -111 -218 -164 -287 -260 -339 l-55
-29 -42 41 c-24 23 -45 39 -49 36 -3 -4 3 -26 14 -51 l20 -45 -30 -6 c-124
-25 -253 71 -274 202 -26 162 260 548 590 796 124 93 257 161 286 145 8 -4 32
-11 53 -14z m1294 -120 c9 -11 18 -53 10 -45 -2 3 -14 25 -26 50 -12 25 -15
36 -7 25 9 -11 19 -24 23 -30z m-1255 -1059 c84 -30 153 -80 206 -149 67 -87
86 -138 86 -242 1 -82 -2 -96 -32 -159 -18 -38 -34 -67 -36 -65 -3 2 2 31 10
64 28 120 -25 254 -129 327 l-32 22 28 -34 c15 -19 42 -64 60 -100 29 -59 32
-74 32 -155 0 -102 -17 -143 -74 -182 -100 -67 -342 -84 -422 -30 -47 32 -90
115 -96 186 -10 103 26 175 110 219 47 24 62 27 157 27 93 0 111 -3 157 -26
66 -33 47 -7 -21 29 -45 24 -62 27 -151 27 -116 0 -156 -16 -218 -84 -56 -62
-69 -103 -65 -193 4 -63 10 -84 32 -119 l28 -42 -30 22 c-103 73 -159 226
-132 358 22 107 77 189 163 246 117 78 246 96 369 53z m1388 -26 c71 -24 159
-75 219 -126 129 -111 177 -299 107 -419 -27 -45 -47 -64 -25 -23 18 34 5 131
-25 182 -79 135 -260 205 -419 162 -34 -9 -73 -26 -87 -37 l-25 -20 40 16
c132 53 323 16 417 -82 118 -121 76 -296 -81 -344 -96 -29 -298 -21 -429 17
-48 14 -56 21 -73 57 -13 29 -19 65 -19 118 0 83 16 141 57 204 l26 40 -33
-30 c-53 -50 -83 -119 -88 -207 -2 -43 0 -90 7 -108 l11 -32 -32 24 c-56 43
-78 99 -78 194 0 92 27 196 57 221 10 8 12 11 5 8 -11 -6 -12 -3 -3 14 7 11
14 21 17 21 3 0 2 -5 -2 -12 -4 -7 -3 -8 4 -4 6 4 9 12 6 19 -14 37 132 151
216 168 52 12 164 1 230 -21z m-571 -547 l12 -23 -265 0 -265 0 24 53 c13 28
29 72 35 97 l11 46 152 -3 c97 -2 174 1 212 9 l60 13 6 -85 c3 -47 11 -95 18
-107z"/>
<path d="M2627 3930 c3 -52 10 -104 15 -115 10 -25 1 125 -12 175 -6 24 -7 4
-3 -60z"/>
<path d="M3053 3713 c-25 -10 -14 -33 16 -33 43 0 79 -16 139 -61 59 -45 68
-33 20 25 -46 56 -128 89 -175 69z"/>
<path d="M2146 3675 c-46 -16 -121 -87 -135 -127 -12 -35 1 -37 23 -3 24 36
115 94 159 102 47 7 56 20 22 33 -14 6 -27 10 -28 10 -1 -1 -20 -7 -41 -15z"/>
<path d="M1669 3623 c-17 -46 -48 -184 -53 -243 -4 -33 2 -14 14 45 10 56 28
129 39 163 19 63 19 85 0 35z"/>
<path d="M3010 3434 c-55 -47 -73 -108 -50 -169 9 -24 8 -26 -7 -20 -203 83
-372 82 -545 -6 -122 -62 -189 -161 -196 -295 -4 -71 -1 -86 21 -131 68 -133
287 -241 469 -231 109 6 226 64 319 157 84 84 104 137 97 256 -5 68 -10 89
-36 131 l-31 49 40 6 c28 4 51 16 77 42 35 35 37 41 37 103 0 63 -1 67 -37
100 -49 45 -110 48 -158 8z m77 -50 c8 -23 -20 -47 -46 -39 -20 6 -28 34 -14
48 12 13 54 7 60 -9z m-327 -105 c154 -24 283 -121 316 -236 44 -151 -32 -287
-211 -378 -69 -35 -85 -40 -169 -43 -105 -5 -171 10 -268 59 -76 38 -124 82
-153 139 -100 198 46 415 308 459 73 12 103 12 177 0z"/>
<path d="M2590 3191 c-120 -37 -152 -112 -74 -180 30 -27 115 -61 151 -61 10
0 13 -19 13 -74 0 -58 -4 -79 -20 -99 -25 -32 -81 -51 -127 -44 -48 8 -38 -15
11 -28 30 -7 48 -5 85 9 54 21 72 22 126 5 50 -15 105 -6 137 22 20 18 21 20
3 13 -65 -23 -130 -15 -169 21 -24 22 -26 31 -26 100 0 63 3 77 18 81 98 31
152 82 152 143 0 44 -20 66 -77 87 -41 14 -162 17 -203 5z m145 -50 c14 -6 2
-10 -40 -14 -33 -4 -81 -9 -107 -13 -51 -7 -64 5 -25 24 25 12 142 14 172 3z"/>
<path d="M2186 3440 c-116 -35 -131 -205 -24 -270 66 -40 144 -13 178 63 25
53 25 81 0 135 -15 33 -29 47 -62 62 -48 22 -51 22 -92 10z m39 -85 c0 -23 -5
-31 -22 -33 -31 -5 -49 31 -27 53 25 25 49 15 49 -20z"/>
<path d="M1602 3290 c0 -19 2 -27 5 -17 2 9 2 25 0 35 -3 9 -5 1 -5 -18z"/>
<path d="M1609 2973 l-34 -38 38 34 c34 33 42 41 34 41 -2 0 -19 -17 -38 -37z"/>
<path d="M1759 2671 c24 -44 173 -142 185 -122 3 5 -8 14 -25 22 -17 7 -63 36
-101 66 -38 30 -64 45 -59 34z"/>
<path d="M2925 2603 c-27 -25 -81 -61 -120 -80 -53 -26 -62 -33 -35 -28 76 14
169 78 200 135 15 27 12 26 -45 -27z"/>
<path d="M2005 2590 c21 -34 209 -105 257 -98 15 2 -3 10 -50 22 -39 10 -104
33 -143 52 -38 19 -67 29 -64 24z"/>
<path d="M2333 2503 c9 -2 17 -9 17 -14 0 -5 12 -7 28 -3 22 4 24 3 12 -6 -12
-9 -7 -10 25 -6 22 3 58 6 80 7 25 1 4 6 -55 15 -95 13 -142 16 -107 7z"/>
<path d="M3538 4463 c7 -3 16 -2 19 1 4 3 -2 6 -13 5 -11 0 -14 -3 -6 -6z"/>
<path d="M3663 4463 c9 -2 23 -2 30 0 6 3 -1 5 -18 5 -16 0 -22 -2 -12 -5z"/>
<path d="M3728 4453 c7 -3 16 -2 19 1 4 3 -2 6 -13 5 -11 0 -14 -3 -6 -6z"/>
<path d="M3928 4293 c34 -68 55 -147 62 -233 l7 -85 2 65 c0 36 -6 93 -14 125
-17 62 -60 165 -70 165 -3 0 3 -17 13 -37z"/>
<path d="M3718 4303 c23 -8 68 -38 99 -66 44 -40 51 -44 33 -20 -36 49 -125
105 -163 102 -7 0 7 -7 31 -16z"/>
<path d="M3982 3950 c0 -14 2 -19 5 -12 2 6 2 18 0 25 -3 6 -5 1 -5 -13z"/>
<path d="M3894 3798 l-19 -23 23 19 c12 11 22 21 22 23 0 8 -8 2 -26 -19z"/>
<path d="M1451 4153 c-39 -44 -81 -146 -67 -160 3 -4 6 -1 6 5 0 30 44 123 76
160 19 23 33 42 31 42 -3 0 -24 -21 -46 -47z"/>
<path d="M1231 4044 c0 -11 3 -14 6 -6 3 7 2 16 -1 19 -3 4 -6 -2 -5 -13z"/>
<path d="M1222 3980 c0 -14 2 -19 5 -12 2 6 2 18 0 25 -3 6 -5 1 -5 -13z"/>
<path d="M1231 3904 c0 -11 3 -14 6 -6 3 7 2 16 -1 19 -3 4 -6 -2 -5 -13z"/>
<path d="M3984 1405 c-7 -33 -10 -62 -9 -64 7 -6 26 81 23 102 -2 12 -8 -5
-14 -38z"/>
<path d="M3191 2255 c-1 -5 13 -53 29 -105 34 -105 60 -237 61 -309 1 -44 1
-45 10 -16 14 43 3 130 -31 242 -31 102 -69 205 -69 188z"/>
<path d="M2661 2150 c0 -14 6 -52 13 -85 40 -178 47 -221 56 -326 l9 -114 -4
126 c-3 117 -15 186 -59 369 -8 31 -14 44 -15 30z"/>
<path d="M2027 1372 c36 -60 94 -123 170 -183 104 -83 211 -134 321 -153 57
-10 34 10 -32 28 -135 37 -291 138 -413 269 -40 43 -58 59 -46 39z"/>
<path d="M3130 1324 c-64 -65 -227 -186 -293 -218 -31 -15 -87 -34 -124 -42
-38 -9 -81 -20 -98 -24 l-30 -8 31 -1 c122 -4 285 68 432 191 55 47 144 148
130 148 -2 0 -24 -21 -48 -46z"/>
<path d="M1741 1943 c-69 -88 -126 -183 -158 -261 -38 -92 -26 -83 25 18 46
93 108 193 172 278 17 23 29 42 26 42 -3 0 -32 -35 -65 -77z"/>
<path d="M1842 1119 c-65 -8 -154 -43 -199 -79 -35 -27 -26 -25 48 10 125 59
269 66 386 18 67 -27 76 -20 14 12 -71 36 -160 50 -249 39z"/>
<path d="M3200 1107 c-42 -12 -133 -56 -119 -57 4 0 28 10 55 22 40 19 67 23
149 23 171 0 300 -60 387 -179 40 -56 35 -31 -8 32 -41 62 -112 111 -205 142
-79 27 -198 35 -259 17z"/>
</g>
</svg>